<svg xmlns="http://www.w3.org/2000/svg" width="933.333" height="933.333" preserveAspectRatio="xMidYMid meet" version="1.0" viewBox="0 0 700 700"><metadata>Created by potrace 1.11, written by Peter Selinger 2001-2013</metadata><g fill="#000" stroke="none"><path d="M2615 6989 c-152 -22 -338 -100 -464 -194 -52 -39 -185 -182 -224 -242 -119 -180 -171 -355 -171 -575 l0 -87 -30 -5 c-17 -3 -49 -8 -71 -12 -63 -10 -194 -53 -265 -89 -185 -91 -360 -264 -449 -442 -24 -48 -60 -138 -68 -168 -22 -88 -40 -203 -42 -270 -3 -148 5 -184 163 -720 168 -567 205 -698 201 -705 -3 -4 -24 -4 -47 2 -49 10 -198 12 -273 3 -136 -16 -331 -95 -453 -182 -168 -119 -306 -308 -371 -503 -37 -114 -50 -206 -46 -340 4 -166 34 -289 105 -430 73 -144 115 -193 411 -471 206 -193 206 -194 339 -319 69 -65 145 -137 170 -160 25 -23 101 -95 170 -160 69 -64 141 -132 160 -150 19 -18 89 -83 155 -145 66 -62 149 -136 185 -164 36 -28 71 -56 78 -62 34 -29 197 -126 292 -174 182 -91 410 -166 598 -195 37 -6 78 -14 92 -17 14 -4 439 -8 945 -9 921 -3 932 -3 1125 30 28 4 120 29 225 60 6 2 23 8 38 14 16 7 31 12 33 12 3 0 54 23 112 51 354 167 653 466 822 821 45 94 101 246 114 308 9 41 143 600 160 665 8 33 17 71 20 85 5 26 83 358 137 580 17 69 33 136 35 150 3 14 20 86 39 160 19 74 36 146 39 160 2 14 36 158 75 320 39 162 73 304 75 315 2 11 9 40 16 65 7 25 14 55 16 67 2 12 24 104 48 205 25 101 61 253 81 338 21 85 46 193 57 240 22 90 30 329 15 400 -5 19 -12 54 -18 77 -49 222 -219 466 -412 591 -108 70 -247 130 -337 146 -23 4 -94 18 -112 22 -5 1 -43 2 -86 3 l-78 1 -18 58 c-59 186 -196 377 -351 488 -76 55 -237 133 -307 149 -13 3 -54 13 -93 22 -110 26 -315 23 -435 -6 -106 -26 -250 -91 -337 -151 -82 -57 -207 -183 -257 -260 -100 -150 -135 -245 -187 -510 -6 -30 -12 -59 -14 -65 -1 -5 -5 -27 -10 -48 -7 -36 -17 -42 -21 -14 -6 38 -179 703 -199 762 -108 330 -420 601 -770 670 -53 11 -268 13 -330 4z m311 -685 c66 -33 118 -88 150 -158 17 -38 124 -432 159 -586 2 -8 13 -49 24 -90 24 -91 103 -397 177 -690 30 -118 69 -266 85 -329 17 -63 32 -121 34 -130 2 -9 20 -79 40 -156 20 -77 39 -149 41 -160 2 -11 31 -123 63 -249 45 -173 67 -240 88 -270 78 -111 252 -125 345 -28 20 20 40 46 46 57 8 17 44 172 66 285 2 14 25 126 51 250 25 124 48 236 51 250 3 14 14 70 26 125 11 55 28 141 38 190 23 114 170 829 204 995 31 146 60 212 120 270 69 67 114 83 231 84 90 1 106 -2 160 -27 131 -61 204 -179 200 -322 -1 -33 -16 -130 -34 -215 -42 -203 -89 -428 -96 -462 -3 -16 -7 -39 -10 -52 -33 -160 -136 -663 -140 -688 -3 -18 -10 -49 -15 -68 -9 -38 -49 -229 -56 -272 -3 -15 -16 -77 -29 -139 -28 -133 -26 -187 10 -241 37 -55 118 -93 186 -85 26 3 62 13 79 22 64 33 78 73 190 545 17 74 47 198 65 275 74 308 87 361 91 385 3 14 9 39 13 55 5 17 24 93 42 170 38 168 73 248 132 302 150 138 418 103 534 -71 65 -96 70 -178 24 -368 -17 -69 -32 -137 -35 -150 -2 -13 -12 -52 -21 -88 -9 -36 -18 -72 -20 -80 -10 -46 -30 -131 -61 -260 -20 -80 -37 -152 -39 -161 -2 -9 -15 -66 -30 -125 -15 -60 -29 -120 -32 -134 -2 -14 -11 -52 -20 -85 -8 -33 -16 -67 -18 -75 -2 -8 -15 -63 -29 -123 -14 -59 -28 -118 -30 -130 -12 -55 -68 -288 -82 -340 -8 -32 -17 -68 -19 -79 -5 -24 -84 -357 -125 -528 -15 -63 -39 -164 -54 -225 -14 -60 -44 -186 -66 -280 -23 -93 -52 -217 -66 -275 -14 -58 -34 -134 -46 -170 -23 -73 -111 -249 -139 -279 -11 -11 -19 -24 -19 -29 0 -5 -41 -50 -90 -101 -132 -134 -275 -224 -447 -280 -165 -54 -205 -56 -1078 -55 -440 1 -833 4 -873 8 -274 25 -569 148 -782 325 -69 58 -149 132 -460 428 -119 113 -159 150 -301 283 -73 69 -170 159 -214 201 -44 42 -111 105 -149 140 -279 258 -311 304 -311 439 1 63 6 86 32 140 37 79 103 147 180 186 51 25 69 29 143 29 73 0 93 -4 140 -28 64 -32 72 -39 273 -229 83 -79 163 -154 178 -168 15 -14 86 -81 158 -149 202 -190 213 -200 243 -206 34 -8 94 19 115 52 13 20 15 50 10 196 -3 95 -8 183 -11 197 -2 14 -7 50 -11 80 -13 114 -17 138 -42 259 -26 129 -64 267 -178 651 -37 124 -71 239 -75 255 -4 17 -24 82 -43 145 -35 115 -49 162 -126 425 -23 77 -53 176 -66 220 -65 214 -87 299 -89 349 -11 247 265 422 507 321 48 -20 129 -99 155 -150 16 -32 101 -308 187 -605 7 -25 47 -160 88 -300 42 -140 101 -340 131 -443 60 -203 72 -230 108 -264 127 -119 353 -17 344 156 -2 38 -52 244 -131 536 -9 33 -18 69 -20 80 -6 25 -183 715 -252 975 -19 74 -36 142 -38 150 -2 8 -38 150 -80 315 -69 269 -77 307 -73 370 10 145 98 250 253 302 67 22 194 11 261 -23z" transform="translate(0.000000,700.000000) scale(0.100000,-0.100000)"/></g></svg>